<svg width="36" height="40" viewBox="0 0 36 40" fill="none" xmlns="http://www.w3.org/2000/svg">
<path d="M18 4C15.8783 4 13.8434 4.84285 12.3431 6.34315C10.8429 7.84344 10 9.87827 10 12C10 14.1217 10.8429 16.1566 12.3431 17.6569C13.8434 19.1571 15.8783 20 18 20C20.1217 20 22.1566 19.1571 23.6569 17.6569C25.1571 16.1566 26 14.1217 26 12C26 9.87827 25.1571 7.84344 23.6569 6.34315C22.1566 4.84285 20.1217 4 18 4ZM6 12C6 8.8174 7.26428 5.76515 9.51472 3.51472C11.7652 1.26428 14.8174 0 18 0C21.1826 0 24.2348 1.26428 26.4853 3.51472C28.7357 5.76515 30 8.8174 30 12C30 15.1826 28.7357 18.2348 26.4853 20.4853C24.2348 22.7357 21.1826 24 18 24C14.8174 24 11.7652 22.7357 9.51472 20.4853C7.26428 18.2348 6 15.1826 6 12ZM10 32C8.4087 32 6.88258 32.6321 5.75736 33.7574C4.63214 34.8826 4 36.4087 4 38C4 38.5304 3.78929 39.0391 3.41421 39.4142C3.03914 39.7893 2.53043 40 2 40C1.46957 40 0.960859 39.7893 0.585786 39.4142C0.210714 39.0391 0 38.5304 0 38C0 35.3478 1.05357 32.8043 2.92893 30.9289C4.8043 29.0536 7.34784 28 10 28H26C28.6522 28 31.1957 29.0536 33.0711 30.9289C34.9464 32.8043 36 35.3478 36 38C36 38.5304 35.7893 39.0391 35.4142 39.4142C35.0391 39.7893 34.5304 40 34 40C33.4696 40 32.9609 39.7893 32.5858 39.4142C32.2107 39.0391 32 38.5304 32 38C32 36.4087 31.3679 34.8826 30.2426 33.7574C29.1174 32.6321 27.5913 32 26 32H10Z" fill="white"/>
</svg>
