<svg width="37" height="35" viewBox="0 0 37 35" fill="none" xmlns="http://www.w3.org/2000/svg">
<g clip-path="url(#clip0_173_38)">
<path d="M37 27.1076C36.4615 27.3002 35.8671 27.2998 35.3289 27.1064C34.7907 26.9129 34.346 26.5399 34.0786 26.0576L28.7598 19.0998L27.989 18.1271L21.8177 26.0663C21.5664 26.5284 21.1457 26.8881 20.6345 27.0781C20.1232 27.2681 19.5562 27.2755 19.0396 27.0988L26.9915 17.0071L19.5946 7.8911C20.1265 7.70979 20.7081 7.70738 21.2417 7.88429C21.7752 8.06119 22.228 8.4066 22.5238 8.86235L28.0368 15.9061L33.5806 8.89151C33.8339 8.43766 34.2546 8.08766 34.7628 7.90805C35.271 7.72845 35.8313 7.73175 36.3371 7.91735L33.4665 11.5209L29.5784 16.3086C29.4705 16.3997 29.3841 16.5114 29.3249 16.6363C29.2657 16.7612 29.2352 16.8965 29.2352 17.0334C29.2352 17.1703 29.2657 17.3056 29.3249 17.4305C29.3841 17.5554 29.4705 17.6671 29.5784 17.7582L36.9846 27.109L37 27.1076ZM0.00310183 16.8817L0.650602 13.8557C2.42969 7.87214 9.68169 5.38276 14.6705 9.08693C17.592 11.2584 18.3212 14.3326 18.1778 17.7976H1.72052C1.45381 23.9853 6.17439 27.7215 12.21 25.8126C13.1885 25.4794 14.0642 24.9219 14.7589 24.1899C15.4536 23.4579 15.9456 22.5744 16.1906 21.6184C16.5097 20.6471 17.0354 20.4809 18.0005 20.7609C17.8397 21.9456 17.397 23.0804 16.7056 24.0799C16.0143 25.0795 15.0923 25.9177 14.0091 26.5315C12.2199 27.4573 10.167 27.8242 8.14406 27.5799C6.12108 27.3355 4.23158 26.4923 2.74573 25.1709C1.27656 23.6067 0.388636 21.6308 0.217394 19.5446C0.217394 19.2019 0.0940602 18.8811 0.0108102 18.5734C0.00330537 18.01 -0.000291926 17.4466 1.84943e-05 16.8832L0.00310183 16.8817ZM1.74056 16.4646H16.6238C16.5313 11.9788 13.5389 8.79672 9.54756 8.76755C5.10448 8.70922 1.92556 11.8213 1.72977 16.4442L1.74056 16.4646Z" fill="white"/>
</g>
<defs>
<clipPath id="clip0_173_38">
<rect width="37" height="35" fill="white"/>
</clipPath>
</defs>
</svg>
