<svg width="45" height="43" viewBox="0 0 45 43" fill="none" xmlns="http://www.w3.org/2000/svg">
<path fill-rule="evenodd" clip-rule="evenodd" d="M22.5112 0.581117C17.1661 0.579422 11.9949 2.39197 7.92349 5.69424C3.85205 8.99651 1.14619 13.5729 0.290376 18.604C-0.565437 23.6351 0.484678 28.7924 3.25271 33.1525C6.02074 37.5127 10.3259 40.791 15.3975 42.4004C16.5154 42.5994 16.9328 41.9349 16.9328 41.3664C16.9328 39.3006 14.9609 37.8977 12.9343 37.4976C10.5682 37.0305 9.65696 35.5509 9.40364 35.0279C9.34438 34.9055 9.29801 34.7787 9.24354 34.6541C8.86992 33.7996 8.44515 33.1749 8.05688 32.7263C7.35376 31.9139 5.18983 31.0574 6.13602 30.5483C6.2208 30.5027 6.32652 30.4709 6.43406 30.4486C6.78984 30.3749 7.16045 30.3969 7.51589 30.4722C9.09349 30.8063 10.0502 32.0443 10.3358 32.4658C10.3989 32.5589 10.4564 32.6576 10.5176 32.7519C12.2707 35.4557 14.9056 35.1059 16.3921 34.6074C16.7598 34.4841 17.0263 34.0141 17.1296 33.6403C17.3938 32.684 16.7555 31.3132 15.7894 31.0872C11.7369 30.1392 8.14968 27.6989 8.14968 20.9169C8.13407 19.9205 8.30678 18.9392 8.65021 18.0169C9.37232 16.0776 10.0092 14.749 10.0149 12.6796C10.0191 11.1522 11.603 9.2911 13.0575 9.75768C13.357 9.85376 13.6863 9.97533 14.0464 10.1285C15.9362 10.9325 18.0021 11.3056 20.0433 11.0792C21.6914 10.8964 23.3564 10.8972 25.0044 11.0816C27.0316 11.3084 29.0837 10.9384 30.9601 10.1383C31.3157 9.98667 31.6417 9.86572 31.9388 9.76962C33.4049 9.29534 35.0051 11.1601 35.0052 12.701C35.0052 14.7581 35.6392 16.07 36.3602 17.9965C36.7069 18.9227 36.8811 19.9086 36.8652 20.9098C36.8652 26.7654 34.2105 29.3761 30.8762 30.5882C29.3393 31.147 28.1156 33.8361 28.1156 35.4714C28.1156 38.3425 28.0933 40.6557 28.0933 41.3593C28.0933 41.9314 28.4957 42.5994 29.636 42.3898C34.7002 40.7742 38.9969 37.494 41.7581 33.1354C44.5193 28.7769 45.5651 23.624 44.7086 18.5978C43.852 13.5716 41.149 8.99969 37.0825 5.69912C33.0161 2.39855 27.8513 0.584472 22.5112 0.581117Z" fill="#9B8AC4"/>
<path d="M8.23845 6.08256C12.2189 2.85413 17.2781 1.07949 22.5108 1.08112L22.511 1.08112C27.7388 1.08444 32.7919 2.86057 36.7674 6.08734C40.7425 9.31372 43.3801 13.7788 44.2157 18.6818C45.0512 23.5845 44.0317 28.6124 41.3357 32.8679C38.6451 37.115 34.4579 40.3187 29.5156 41.9033C29.0708 41.9789 28.8614 41.8744 28.7659 41.7911C28.6567 41.6957 28.5933 41.5382 28.5933 41.3593C28.5933 41.1279 28.5957 40.7211 28.599 40.1749C28.6007 39.8952 28.6026 39.5789 28.6045 39.2309C28.61 38.2053 28.6156 36.9082 28.6156 35.4714C28.6156 34.7562 28.8904 33.7553 29.3621 32.8589C29.8417 31.9473 30.4562 31.273 31.047 31.0581C32.7835 30.4269 34.3761 29.4185 35.53 27.778C36.683 26.1387 37.3646 23.9156 37.3652 20.9136C37.3816 19.8504 37.1962 18.8039 36.8285 17.8212C36.725 17.5447 36.6244 17.2832 36.528 17.0324C35.9393 15.5011 35.5052 14.3719 35.5052 12.701C35.5051 11.7748 35.0348 10.8038 34.3801 10.1309C33.731 9.4638 32.7751 8.97357 31.7849 9.29389C31.4729 9.39483 31.1328 9.52112 30.7639 9.6784C28.956 10.4494 26.9904 10.8007 25.06 10.5847C23.3752 10.3961 21.6731 10.3953 19.9882 10.5822C18.0435 10.7979 16.0639 10.4435 14.2421 9.66841C13.8687 9.50954 13.525 9.38256 13.2102 9.28158C12.2246 8.96542 11.276 9.45849 10.6329 10.1232C9.98404 10.7941 9.51739 11.7599 9.51487 12.6782C9.51025 14.361 9.07273 15.505 8.48256 17.0482C8.38594 17.3009 8.28522 17.5643 8.18164 17.8424C7.81728 18.821 7.63361 19.8626 7.64968 20.9208C7.65036 24.401 8.57344 26.8341 10.0764 28.5223C11.5735 30.2039 13.5935 31.087 15.6755 31.574C15.9656 31.6419 16.2673 31.9042 16.4744 32.315C16.6801 32.7229 16.7391 33.176 16.6476 33.5071C16.6094 33.6454 16.5396 33.8034 16.4501 33.9314C16.3562 34.0658 16.2752 34.1192 16.2331 34.1333C15.5328 34.3682 14.5925 34.5563 13.6419 34.3882C12.712 34.2236 11.7367 33.7131 10.9371 32.4799L10.6152 32.6886L10.9371 32.4799C10.9239 32.4596 10.9043 32.4281 10.8817 32.3919C10.8402 32.3254 10.7888 32.2429 10.7497 32.1853C10.4448 31.7354 9.39321 30.3587 7.61948 29.983C7.2172 29.8978 6.77414 29.8676 6.3327 29.959C6.20268 29.9859 6.04418 30.03 5.89914 30.108L6.13602 30.5483L5.89914 30.108C5.73018 30.1989 5.54675 30.3407 5.45496 30.5662C5.35581 30.8098 5.40655 31.041 5.48927 31.2095C5.567 31.3678 5.68572 31.5013 5.79615 31.6075C5.91084 31.7177 6.04449 31.8244 6.17979 31.9249C6.33867 32.0429 6.5302 32.1738 6.71457 32.2997C6.8285 32.3775 6.9397 32.4534 7.03878 32.5234C7.32507 32.7254 7.54682 32.901 7.67881 33.0535C8.03431 33.4642 8.43203 34.0462 8.78542 34.8544C8.7966 34.88 8.81147 34.9161 8.82856 34.9575C8.86508 35.0461 8.91166 35.1591 8.95364 35.2458C9.25128 35.8604 10.2703 37.4813 12.8374 37.9881C13.7787 38.1739 14.6932 38.5911 15.3626 39.1822C16.0269 39.7688 16.4328 40.5078 16.4328 41.3664C16.4328 41.5375 16.3694 41.6955 16.2562 41.794C16.1566 41.8806 15.9462 41.9836 15.516 41.9134C10.567 40.3346 6.37189 37.1329 3.67483 32.8845C0.972243 28.6275 -0.0514914 23.5953 0.783296 18.6878C1.61814 13.78 4.25852 9.31061 8.23845 6.08256Z" stroke="#9B8AC4" stroke-opacity="0.2"/>
</svg>
