<svg width="40" height="38" viewBox="0 0 40 38" fill="none" xmlns="http://www.w3.org/2000/svg">
<path d="M18.6225 0.504535C18.9885 0.179511 19.461 0 19.9505 0C20.44 0 20.9125 0.179511 21.2785 0.504535L39.2785 16.5045C39.6548 16.862 39.8774 17.3517 39.8993 17.8702C39.9212 18.3887 39.7407 18.8954 39.3959 19.2833C39.0511 19.6712 38.569 19.9099 38.0515 19.9489C37.534 19.9879 37.0216 19.8243 36.6225 19.4925L35.9505 18.8985V33.9985C35.9505 35.0594 35.5291 36.0768 34.779 36.827C34.0288 37.5771 33.0114 37.9985 31.9505 37.9985H7.95054C6.88967 37.9985 5.87226 37.5771 5.12211 36.827C4.37196 36.0768 3.95054 35.0594 3.95054 33.9985V18.8985L3.27854 19.4925C2.87945 19.8243 2.36704 19.9879 1.84954 19.9489C1.33203 19.9099 0.84997 19.6712 0.505183 19.2833C0.160396 18.8954 -0.0201151 18.3887 0.00178289 17.8702C0.0236809 17.3517 0.246273 16.862 0.622537 16.5045L18.6225 0.504535ZM7.95054 15.3385V33.9985H13.9505V23.9985C13.9505 23.4681 14.1613 22.9594 14.5363 22.5843C14.9114 22.2092 15.4201 21.9985 15.9505 21.9985H23.9505C24.481 21.9985 24.9897 22.2092 25.3647 22.5843C25.7398 22.9594 25.9505 23.4681 25.9505 23.9985V33.9985H31.9505V15.3405L19.9505 4.67453L7.95054 15.3385ZM21.9505 33.9985V25.9985H17.9505V33.9985H21.9505Z" fill="white"/>
</svg>
