<svg width="37" height="35" viewBox="0 0 37 35" fill="none" xmlns="http://www.w3.org/2000/svg">
<g clip-path="url(#clip0_173_21)">
<path d="M30.8334 5.83337L27.7501 26.9792L18.5001 29.8959L9.25008 26.9792L6.16675 5.83337H30.8334Z" stroke="white" stroke-width="2" stroke-linecap="round" stroke-linejoin="round"/>
<path d="M11.5625 11.6666H16.1875V23.3333L13.1042 21.875" stroke="white" stroke-width="2" stroke-linecap="round" stroke-linejoin="round"/>
<path d="M25.4375 11.6666H21.5833C21.3789 11.6666 21.1828 11.7434 21.0383 11.8802C20.8937 12.0169 20.8125 12.2024 20.8125 12.3958V16.7708C20.8125 16.9642 20.8937 17.1496 21.0383 17.2864C21.1828 17.4231 21.3789 17.5 21.5833 17.5H23.7771C23.8875 17.5 23.9965 17.5224 24.0969 17.5657C24.1973 17.609 24.2867 17.6722 24.359 17.751C24.4314 17.8298 24.485 17.9224 24.5162 18.0225C24.5475 18.1226 24.5557 18.2279 24.5403 18.3312L23.8958 22.6041L20.8125 23.3333" stroke="white" stroke-width="2" stroke-linecap="round" stroke-linejoin="round"/>
</g>
<defs>
<clipPath id="clip0_173_21">
<rect width="37" height="35" fill="white"/>
</clipPath>
</defs>
</svg>
