<svg width="43" height="40" viewBox="0 0 43 40" fill="none" xmlns="http://www.w3.org/2000/svg">
<path d="M36.6396 30.8334C36.6391 32.5927 35.2128 34.0187 33.4535 34.0187C31.6938 34.0187 30.2673 32.5922 30.2673 30.8326V24.7543C30.2673 22.5451 30.2248 19.7012 26.9536 19.7012C23.6351 19.7012 23.1273 22.1081 23.1273 24.5934V30.8324C23.1273 32.5918 21.7011 34.018 19.9417 34.018C18.1823 34.018 16.7561 32.5918 16.7561 30.8324V18.0248C16.7561 16.3358 18.1253 14.9666 19.8143 14.9666H21.5707C22.2897 14.9666 22.8725 15.5494 22.8725 16.2684V17.5149C22.8725 17.5454 22.8972 17.5701 22.9278 17.5701C22.9468 17.5701 22.9644 17.5604 22.9746 17.5443C24.2239 15.5828 26.5385 14.4082 28.9931 14.4928C35.4507 14.4928 36.6415 18.4366 36.6415 23.5674L36.6396 30.8334ZM9.56706 12.3624H9.56628C7.53793 12.3624 5.86886 10.8128 5.86886 8.92949C5.86886 7.04617 7.53793 5.49645 9.56628 5.49645C11.5944 5.49645 13.2633 7.04582 13.2637 8.92878V8.92949C13.2637 10.8125 11.595 12.3622 9.56706 12.3624ZM12.7527 30.8297C12.7527 32.591 11.3249 34.0187 9.56369 34.0187C7.80246 34.0187 6.3747 32.591 6.3747 30.8297V18.1556C6.3747 16.3944 7.80246 14.9666 9.56369 14.9666C11.3249 14.9666 12.7527 16.3944 12.7527 18.1556V30.8297ZM39.815 0.00149601C39.815 0.002191 39.8144 0.0027544 39.8137 0.0027544H3.17293C1.45289 -0.0152823 0.0209644 1.28336 0 2.88041V37.0437C0.020195 38.6417 1.45193 39.9417 3.17293 39.9246H39.815C41.5402 39.9448 42.9769 38.6449 43 37.0437V2.87809C42.9769 1.27803 41.539 -0.0201918 39.8162 0.000237861C39.8155 0.000246031 39.815 0.000807021 39.815 0.00149601Z" fill="#9B8AC4"/>
</svg>
