<svg width="37" height="35" viewBox="0 0 37 35" fill="none" xmlns="http://www.w3.org/2000/svg">
<g clip-path="url(#clip0_173_40)">
<path fill-rule="evenodd" clip-rule="evenodd" d="M8.42047 5.89178C7.9996 5.8844 7.70178 5.93495 7.3872 6.00026V6.05431H7.44473C7.64581 6.44451 8.00038 6.69578 8.24846 7.03192C8.4392 7.41215 8.63052 7.79183 8.82185 8.17151C8.84135 8.15343 8.86066 8.13554 8.87938 8.11746C9.23531 7.88076 9.39758 7.50182 9.39602 6.92326C9.25326 6.7812 9.232 6.60372 9.10874 6.43455C8.9453 6.20892 8.6274 6.08143 8.42047 5.89178ZM36.1963 33.7414C36.4672 33.9293 36.6487 34.2208 37 34.3389V34.2845C36.8151 34.0627 36.7681 33.7567 36.5984 33.5242C36.3504 33.2895 36.1003 33.0539 35.8522 32.8184C35.1224 31.9024 34.197 31.0984 33.2125 30.4301C32.4283 29.8968 30.6706 29.1773 30.343 28.3133C30.3243 28.2949 30.3048 28.2766 30.2853 28.2581C30.8417 28.1991 31.4937 28.0087 32.0072 27.8783C32.87 27.6595 33.6414 27.7163 34.5319 27.4984C34.9342 27.3894 35.3356 27.2805 35.7372 27.173V26.9551C35.2868 26.5179 34.9658 25.9393 34.4751 25.5436C33.1895 24.509 31.7874 23.4743 30.3428 22.6124C29.5424 22.1338 28.5518 21.8233 27.7028 21.4178C27.4173 21.2817 26.9161 21.2107 26.7271 20.9836C26.2818 20.4456 26.0386 19.7639 25.6946 19.1376C24.9746 17.8253 24.2664 16.3922 23.6281 15.0115C23.1933 14.0702 22.9088 13.1418 22.366 12.2971C19.7602 8.24439 16.9547 5.79806 12.6099 3.39361C11.6847 2.88239 10.5719 2.68056 9.39602 2.41674C8.76509 2.38076 8.133 2.34405 7.50207 2.30807C7.11688 2.15587 6.71629 1.71014 6.3545 1.49374C4.91478 0.63365 1.22225 -1.23762 0.156598 1.22254C-0.51665 2.77502 1.16218 4.29004 1.76307 5.07707C2.18493 5.62888 2.72419 6.24784 3.0261 6.86828C3.22405 7.27619 3.25779 7.68557 3.42845 8.11709C3.84542 9.18048 4.20779 10.3372 4.74725 11.3202C5.02049 11.8172 5.32142 12.3413 5.66624 12.7858C5.87785 13.0586 6.23944 13.1787 6.29619 13.6001C5.9426 14.0693 5.92231 14.7973 5.72358 15.3915C4.82643 18.067 5.16481 21.3918 6.46977 23.3721C6.86958 23.9797 7.81275 25.2838 9.10874 24.7833C10.2425 24.3464 9.9897 22.9923 10.314 21.7977C10.387 21.5263 10.3425 21.3273 10.4861 21.1463V21.2003C10.8309 21.8518 11.1753 22.5032 11.5193 23.1544C12.2842 24.3191 13.6411 25.5371 14.791 26.3579C15.3864 26.7837 15.8559 27.5202 16.6272 27.7694V27.7143H16.5697C16.4195 27.4949 16.1858 27.4029 15.9963 27.2263C15.5469 26.8095 15.0474 26.2919 14.6757 25.8146C13.6296 24.4717 12.7057 23.0017 11.8639 21.4719C11.4616 20.7411 11.1121 19.9351 10.7729 19.1918C10.6425 18.9049 10.644 18.4715 10.3714 18.323C10 18.8676 9.45336 19.3086 9.16608 19.9517C8.70697 20.98 8.64788 22.234 8.47762 23.5345C8.37698 23.5688 8.42164 23.5454 8.36235 23.5885C7.56272 23.4066 7.28207 22.6281 6.98524 21.9602C6.23417 20.2718 6.09472 17.5526 6.75568 15.6086C6.92673 15.1059 7.70061 13.5217 7.38661 13.0572C7.23722 12.5933 6.74496 12.3257 6.46938 11.9713C6.1269 11.5333 5.78638 10.9571 5.54961 10.4511C4.93565 9.13455 4.64856 7.6566 4.00125 6.32551C3.69154 5.68958 3.16827 5.04534 2.73843 4.47951C2.26255 3.85299 1.72953 3.39176 1.36111 2.63351C1.22986 2.36434 1.0514 1.93356 1.24604 1.65664C1.30748 1.46976 1.39524 1.3919 1.59086 1.33084C1.92417 1.08805 2.85037 1.41164 3.19733 1.54798C4.1171 1.90939 4.88592 2.25383 5.66546 2.74218C6.03933 2.97685 6.41789 3.43106 6.86978 3.5567H7.38642C8.19502 3.73215 9.10016 3.61149 9.85434 3.82827C11.1886 4.21182 12.3841 4.80846 13.4698 5.45712C16.7774 7.43245 19.4821 10.2452 21.3321 13.6001C21.6298 14.1403 21.7589 14.6558 22.0206 15.229C22.5493 16.3844 23.2161 17.5731 23.7423 18.7033C24.2672 19.8301 24.7789 20.9679 25.521 21.9062C25.9111 22.3991 27.4187 22.6637 28.1042 22.9378C28.5844 23.1295 29.371 23.3299 29.8252 23.5885C30.6946 24.0846 31.5358 24.6746 32.3506 25.2178C32.7579 25.4895 34.0102 26.0847 34.0718 26.5743C32.0538 26.5238 30.5121 26.7011 29.1941 27.2265C28.8194 27.3754 28.2224 27.3798 28.1608 27.8231C28.3667 28.0272 28.3993 28.3327 28.5631 28.5834C28.8769 29.0653 29.4082 29.7104 29.8827 30.0495C30.4009 30.4194 30.9347 30.8152 31.4894 31.1353C32.4772 31.7053 33.5803 32.0306 34.5309 32.6012C35.0934 32.9381 35.6498 33.3615 36.1963 33.7414Z" fill="white"/>
</g>
<defs>
<clipPath id="clip0_173_40">
<rect width="37" height="35" fill="white"/>
</clipPath>
</defs>
</svg>
