<svg width="37" height="35" viewBox="0 0 37 35" fill="none" xmlns="http://www.w3.org/2000/svg">
<path d="M31.0569 8.89147L19.8247 2.51901C19.4212 2.30143 18.9648 2.18701 18.5004 2.18701C18.036 2.18701 17.5796 2.30143 17.1761 2.51901L5.94316 8.89079C5.53836 9.12544 5.20437 9.45489 4.97347 9.84731C4.74257 10.2397 4.62256 10.6818 4.62504 11.1309V23.8574C4.62261 24.3068 4.74262 24.7491 4.9735 25.1419C5.20438 25.5346 5.53833 25.8644 5.94316 26.0996L8.88871 27.7634L8.90533 27.7723C10.3926 28.4922 10.962 28.4922 11.6218 28.4922C13.9444 28.4922 15.3876 27.0703 15.3876 24.7809V12.4414C15.3889 12.2873 15.3256 12.1391 15.2115 12.0291C15.0975 11.9191 14.9419 11.8565 14.7791 11.8549H13.1618C12.9989 11.8565 12.8434 11.9191 12.7293 12.0291C12.6153 12.1391 12.552 12.2873 12.5533 12.4414V24.7809C12.5592 24.9576 12.5167 25.1327 12.43 25.2892C12.3432 25.4458 12.2152 25.5784 12.0583 25.6744C11.6319 25.9205 11.0126 25.8685 10.3138 25.5274L7.49109 23.9203C7.48029 23.9133 7.47147 23.9039 7.46542 23.8929C7.45936 23.882 7.45627 23.8698 7.4564 23.8574V11.3107C7.45687 11.2963 7.46098 11.2822 7.4684 11.2696C7.47582 11.257 7.48633 11.2462 7.49904 11.2382L18.4719 4.88083C18.48 4.87697 18.4891 4.87497 18.4982 4.87497C18.5074 4.87497 18.5164 4.87697 18.5246 4.88083L29.5039 11.2382C29.5164 11.2469 29.5265 11.2582 29.5335 11.2713C29.5404 11.2844 29.5439 11.2988 29.5437 11.3134V23.8574C29.5439 23.8704 29.5412 23.8832 29.5355 23.895C29.5299 23.9069 29.5216 23.9173 29.5111 23.9258L18.5224 30.1225C18.5037 30.1287 18.4833 30.1287 18.4646 30.1225L15.6586 28.5462C15.5752 28.4947 15.479 28.4649 15.3796 28.46C15.2802 28.4551 15.1812 28.4751 15.0927 28.5181L15.0681 28.5318C14.2935 28.9659 14.0853 29.0787 13.367 29.3261C13.2499 29.3665 12.9746 29.4629 12.9508 29.7206C12.9269 29.9783 13.1885 30.1615 13.4212 30.2893L17.1718 32.4679C17.5714 32.6944 18.0284 32.8141 18.4943 32.8145H18.5362C18.9904 32.8078 19.4347 32.6883 19.8247 32.4679L31.0569 26.1016C31.4615 25.8658 31.7953 25.5355 32.0261 25.1425C32.2569 24.7495 32.3771 24.307 32.375 23.8574V11.1309C32.3773 10.682 32.2572 10.24 32.0263 9.84774C31.7954 9.45547 31.4616 9.12612 31.0569 8.89147Z" fill="white"/>
<path d="M22.2492 21.7417C19.5544 21.7417 18.9799 21.0294 18.8094 19.8796C18.7902 19.7427 18.7196 19.6168 18.6106 19.525C18.5016 19.4332 18.3613 19.3814 18.2154 19.3792H16.7845C16.6232 19.3824 16.4699 19.4459 16.358 19.5559C16.2462 19.6658 16.1849 19.8131 16.1876 19.9657C16.1876 20.9624 16.5576 24.2156 22.2521 24.2156C24.014 24.2156 25.4795 23.826 26.489 23.0884C27.4986 22.3508 28.0391 21.2775 28.0391 19.9985C28.0391 17.4316 26.2686 16.7289 22.7818 16.2695C19.2372 15.8033 19.2372 15.5661 19.2372 15.0466C19.2372 14.6726 19.2372 13.7969 21.7997 13.7969C23.623 13.7969 24.5993 14.015 24.9115 15.1641C24.9391 15.2915 25.012 15.4062 25.1179 15.4891C25.2238 15.572 25.3565 15.6182 25.494 15.6201H26.9299C27.0145 15.6193 27.098 15.6015 27.1747 15.5677C27.2515 15.534 27.3198 15.4852 27.375 15.4246C27.4854 15.3027 27.5405 15.1445 27.5282 14.9844C27.3425 12.5542 25.4643 11.3217 21.8019 11.3217C18.4733 11.3217 16.4868 12.7401 16.4868 15.1156C16.4868 17.7201 18.5456 18.4563 21.6386 18.7612C25.2519 19.1146 25.2519 19.6301 25.2519 20.0853C25.254 20.7949 24.9426 21.7417 22.2492 21.7417Z" fill="white"/>
</svg>
