<svg width="40" height="41" viewBox="0 0 40 41" fill="none" xmlns="http://www.w3.org/2000/svg">
<path d="M38.25 3.375H21.5625V0.375C21.5625 0.16875 21.3937 0 21.1875 0H18.5625C18.3563 0 18.1875 0.16875 18.1875 0.375V3.375H1.5C0.670312 3.375 0 4.04531 0 4.875V29.25C0 30.0797 0.670312 30.75 1.5 30.75H18.2062V32.25L10.4813 37.3172C10.3078 37.4297 10.2609 37.6594 10.3734 37.8328L11.7938 40.0453V40.05C11.9062 40.2234 12.1406 40.2703 12.3141 40.1578L19.875 35.1984L27.4359 40.1578C27.6094 40.2703 27.8438 40.2234 27.9563 40.05V40.0453L29.3766 37.8328C29.4891 37.6594 29.4375 37.4297 29.2688 37.3172L21.5625 32.2641V30.75H38.25C39.0797 30.75 39.75 30.0797 39.75 29.25V4.875C39.75 4.04531 39.0797 3.375 38.25 3.375ZM36.375 27.375H3.375V6.75H36.375V27.375Z" fill="white"/>
</svg>
