<svg width="37" height="35" viewBox="0 0 37 35" fill="none" xmlns="http://www.w3.org/2000/svg">
<g clip-path="url(#clip0_173_26)">
<path d="M9.80029 13.125C5.73492 14.1167 3.08325 15.8156 3.08325 17.7552C3.08325 20.8279 9.87429 23.3333 18.2687 23.3333C19.4095 23.3333 20.2112 23.2765 21.2749 23.1919" stroke="white" stroke-width="2" stroke-linecap="round" stroke-linejoin="round"/>
<path d="M15.1653 23.1875C14.5286 22.3183 13.9227 21.5352 13.3461 20.5625C9.10497 13.4166 7.96876 6.31454 10.8332 4.706C12.6061 3.68954 15.5306 5.07496 18.5014 7.99308" stroke="white" stroke-width="2" stroke-linecap="round" stroke-linejoin="round"/>
<path d="M9.91144 22.4394C8.82919 26.3594 9.04811 29.3169 10.7748 30.3071C13.5236 31.8821 19.0797 27.4517 23.1744 20.3846C23.7294 19.4075 24.2274 18.4465 24.6667 17.5" stroke="white" stroke-width="2" stroke-linecap="round" stroke-linejoin="round"/>
<path d="M18.5 27.0083C21.4723 29.925 24.3845 31.3104 26.1744 30.294C29.0265 28.6869 27.9026 21.5848 23.6569 14.4375C23.0649 13.4502 22.459 12.6817 21.8377 11.8125" stroke="white" stroke-width="2" stroke-linecap="round" stroke-linejoin="round"/>
<path d="M27.2259 21.875C31.2528 20.8731 33.9168 19.177 33.9168 17.2433C33.9168 14.1662 27.1211 11.6666 18.7391 11.6666C17.5874 11.6666 16.7873 11.7089 15.7251 11.7935" stroke="white" stroke-width="2" stroke-linecap="round" stroke-linejoin="round"/>
<path d="M12.3333 17.5C12.7726 16.5375 13.269 15.5925 13.8256 14.6154C17.9064 7.55127 23.4656 3.10918 26.2298 4.69731C27.9411 5.68751 28.1754 8.64356 27.0932 12.5621" stroke="white" stroke-width="2" stroke-linecap="round" stroke-linejoin="round"/>
<path d="M18.9008 17.5219H18.8854C18.87 17.7115 18.7004 17.8719 18.4845 17.8719C18.3813 17.8671 18.2839 17.8252 18.2123 17.7547C18.1407 17.6842 18.1002 17.5905 18.0991 17.4928C18.0991 17.2886 18.2687 17.1282 18.4691 17.1282H18.4537C18.6541 17.1136 18.8391 17.2886 18.8391 17.4782" stroke="white" stroke-width="2" stroke-linecap="round" stroke-linejoin="round"/>
</g>
<defs>
<clipPath id="clip0_173_26">
<rect width="37" height="35" fill="white"/>
</clipPath>
</defs>
</svg>
